<svg width="26" height="31" viewBox="0 0 26 31" fill="none" xmlns="http://www.w3.org/2000/svg">
<path d="M10.0997 12.2055L11.4284 19.0388L5.35435 22.0758C0.175307 16.3902 -0.205203 12.9325 3.2664 6.32129L10.0997 12.2055Z" stroke="url(#paint0_linear_43_137)" stroke-linecap="round"/>
<path d="M10.6692 11.7307L3.07666 5.18219C6.22136 1.59065 8.44864 0.305123 14.0858 0.626678C21.6784 1.05977 25.0001 5.56183 25.0001 12.2053L12.0928 18.6589L10.6692 11.7307Z" stroke="url(#paint1_linear_43_137)" stroke-linecap="round"/>
<path d="M25.0001 16.1914V28.4343C23.7663 24.638 21.7733 23.4992 19.4006 23.2145C14.8687 22.6706 12.2313 24.8995 10.954 29.9528H4.59521L7.72713 25.3973L16.3636 20.7943L25.0001 16.1914Z" stroke="url(#paint2_linear_43_137)" stroke-linecap="round"/>
<path d="M25.0001 12.6802L5.73413 22.8352L7.25264 25.2078L25.0001 15.7172V12.6802Z" fill="url(#paint3_linear_43_137)"/>
<path d="M24.8217 30H11.7246C12.674 25.7173 14.0024 23.6413 18.3681 23.5464C22.6389 23.6413 23.8886 25.6731 24.8217 30Z" stroke="url(#paint4_linear_43_137)" stroke-linecap="round"/>
<defs>
<linearGradient id="paint0_linear_43_137" x1="5.74533" y1="8.36166" x2="4.13192" y2="20.8893" gradientUnits="userSpaceOnUse">
<stop stop-color="#FDF8F5"/>
<stop offset="1" stop-color="#FDF8F5" stop-opacity="0"/>
</linearGradient>
<linearGradient id="paint1_linear_43_137" x1="22.1642" y1="3.90083" x2="10.9653" y2="29.6205" gradientUnits="userSpaceOnUse">
<stop offset="0.111431" stop-color="#FDF8F5"/>
<stop offset="1" stop-color="#FDF8F5" stop-opacity="0"/>
</linearGradient>
<linearGradient id="paint2_linear_43_137" x1="22.1642" y1="3.90083" x2="10.9653" y2="29.6205" gradientUnits="userSpaceOnUse">
<stop offset="0.111431" stop-color="#FDF8F5"/>
<stop offset="1" stop-color="#FDF8F5" stop-opacity="0"/>
</linearGradient>
<linearGradient id="paint3_linear_43_137" x1="24.9166" y1="14.6256" x2="7.83338" y2="24.8755" gradientUnits="userSpaceOnUse">
<stop stop-color="#E5643C"/>
<stop offset="1" stop-color="#E5643C" stop-opacity="0"/>
</linearGradient>
<linearGradient id="paint4_linear_43_137" x1="18.2732" y1="23.5464" x2="18.2732" y2="29.2408" gradientUnits="userSpaceOnUse">
<stop stop-color="#FDF8F5"/>
<stop offset="1" stop-color="#FDF8F5" stop-opacity="0"/>
</linearGradient>
</defs>
</svg>
