<svg width="399" height="399" viewBox="0 0 399 399" fill="none" xmlns="http://www.w3.org/2000/svg">
<rect width="399" height="399" rx="199.5" fill="#050201"/>
<circle cx="317.384" cy="198.876" r="33.2798" stroke="url(#paint0_linear_155_39)" stroke-width="6.23853"/>
<path d="M54.0137 231C55.0766 231 55.9856 230.622 56.7408 229.867C57.4961 229.14 57.8737 228.245 57.8737 227.182V186.652L74.9919 210.777C75.7471 211.84 76.782 212.371 78.0966 212.371C79.4113 212.371 80.4602 211.84 81.2434 210.777L98.3616 186.652V227.182C98.3616 228.245 98.7392 229.14 99.4944 229.867C100.222 230.622 101.117 231 102.18 231C103.243 231 104.152 230.622 104.907 229.867C105.662 229.14 106.04 228.245 106.04 227.182V174.611C106.04 172.765 105.145 171.548 103.354 170.96C101.564 170.401 100.138 170.89 99.0748 172.429L78.0966 201.924L57.1604 172.429C56.0695 170.89 54.643 170.401 52.8808 170.96C51.0907 171.548 50.1956 172.765 50.1956 174.611V227.182C50.1956 228.245 50.5732 229.14 51.3285 229.867C52.0557 230.622 52.9508 231 54.0137 231ZM181.142 231C182.204 231 183.114 230.622 183.869 229.867C184.624 229.14 185.002 228.245 185.002 227.182V210.064H196.791L214.958 229.783C215.714 230.594 216.651 231 217.77 231C218.776 231 219.644 230.664 220.371 229.993C221.154 229.266 221.574 228.371 221.63 227.308C221.657 226.273 221.308 225.364 220.581 224.581L206.567 209.35C210.763 208.204 214.203 205.896 216.888 202.428C219.63 198.903 221 194.904 221 190.428C221 185.03 219.084 180.401 215.252 176.541C211.42 172.709 206.791 170.793 201.365 170.793H181.142C180.079 170.793 179.184 171.17 178.456 171.925C177.701 172.681 177.324 173.576 177.324 174.611C177.324 175.673 177.701 176.583 178.456 177.338C179.184 178.093 180.079 178.471 181.142 178.471H201.365C204.665 178.471 207.49 179.631 209.84 181.953C212.161 184.303 213.322 187.128 213.322 190.428C213.322 193.729 212.161 196.554 209.84 198.903C207.49 201.225 204.665 202.386 201.365 202.386H181.142C180.079 202.386 179.184 202.763 178.456 203.519C177.701 204.274 177.324 205.183 177.324 206.246V227.182C177.324 228.245 177.701 229.14 178.456 229.867C179.184 230.622 180.079 231 181.142 231ZM247.055 223.322C244.51 223.322 242.328 222.413 240.51 220.595C238.692 218.777 237.783 216.595 237.783 214.05C237.783 212.987 237.405 212.078 236.65 211.322C235.895 210.567 234.986 210.19 233.923 210.19C232.86 210.19 231.965 210.567 231.238 211.322C230.482 212.078 230.105 212.987 230.105 214.05C230.105 218.721 231.769 222.707 235.098 226.007C238.398 229.336 242.384 231 247.055 231H257.502C262.173 231 266.173 229.336 269.502 226.007C272.83 222.707 274.495 218.721 274.495 214.05C274.495 209.35 272.83 205.351 269.502 202.05C266.173 198.722 262.173 197.057 257.502 197.057H247.055C244.51 197.057 242.328 196.148 240.51 194.33C238.692 192.512 237.783 190.316 237.783 187.743C237.783 185.198 238.692 183.016 240.51 181.198C242.328 179.38 244.51 178.471 247.055 178.471H257.502C260.076 178.471 262.271 179.38 264.089 181.198C265.907 183.016 266.817 185.198 266.817 187.743C266.817 188.806 267.194 189.715 267.949 190.47C268.677 191.225 269.572 191.603 270.635 191.603C271.697 191.603 272.607 191.225 273.362 190.47C274.117 189.715 274.495 188.806 274.495 187.743C274.495 183.072 272.83 179.086 269.502 175.785C266.173 172.457 262.173 170.793 257.502 170.793H247.055C242.384 170.793 238.398 172.457 235.098 175.785C231.769 179.086 230.105 183.072 230.105 187.743C230.105 192.442 231.769 196.442 235.098 199.742C238.398 203.071 242.384 204.735 247.055 204.735H257.502C260.076 204.735 262.271 205.644 264.089 207.462C265.907 209.281 266.817 211.476 266.817 214.05C266.817 216.595 265.907 218.777 264.089 220.595C262.271 222.413 260.076 223.322 257.502 223.322H247.055Z" fill="#FDF8F5"/>
<path d="M167.799 229.28C168.555 228.105 168.653 226.888 168.093 225.63L145.101 173.1C144.43 171.562 143.255 170.793 141.577 170.793C139.926 170.793 138.766 171.562 138.094 173.1L115.102 225.63C114.683 226.609 114.669 227.588 115.06 228.567C115.424 229.546 116.095 230.245 117.074 230.664C117.578 230.888 118.095 231 118.627 231C120.277 231 121.438 230.231 122.109 228.692L141.577 184.177L158.737 223.322H136.122C135.059 223.322 134.15 223.7 133.395 224.455C132.668 225.21 132.304 226.119 132.304 227.182C132.304 228.217 132.668 229.112 133.395 229.867C134.15 230.622 135.059 231 136.122 231H164.569C165.967 231 167.044 230.427 167.799 229.28Z" fill="#CC5C2E"/>
<defs>
<linearGradient id="paint0_linear_155_39" x1="351.112" y1="185.853" x2="285.66" y2="205.555" gradientUnits="userSpaceOnUse">
<stop stop-color="#CC5C2E"/>
<stop offset="1" stop-color="#CC5C2E" stop-opacity="0"/>
</linearGradient>
</defs>
</svg>
